<?xml version="1.0" standalone="no"?><!DOCTYPE svg PUBLIC "-//W3C//DTD SVG 1.1//EN" "http://www.w3.org/Graphics/SVG/1.1/DTD/svg11.dtd"><svg t="1598280603782" class="icon" viewBox="0 0 1024 1024" version="1.1" xmlns="http://www.w3.org/2000/svg" p-id="1185" xmlns:xlink="http://www.w3.org/1999/xlink" width="200" height="200"><defs><style type="text/css"></style></defs><path d="M471.879277 72.133522c13.963129-30.160358 21.177412-30.113814 34.209665 0.232719l113.659867 264.368569a25.412894 25.412894 0 0 0 33.046071 13.171884 24.62165 24.62165 0 0 0 13.451147-32.580633l-113.659866-264.368569c-30.206902-70.094906-94.902731-70.699975-126.785208-1.11705L306.602378 312.159703a24.575106 24.575106 0 0 0 12.659903 32.580634 25.412894 25.412894 0 0 0 33.371878-12.427185z m474.420567 324.363478c33.511509 3.58387 35.699065 10.472346 10.332715 32.022108L735.410058 616.276644a24.435475 24.435475 0 0 0-2.559907 34.954366 25.599069 25.599069 0 0 0 35.605978 2.513363l221.129413-187.757536c58.784771-49.894913 39.376023-110.494891-37.933166-118.686593L662.56907 316.534817a24.761281 24.761281 0 1 0-5.44562 49.2433z m-157.038653 549.542199c6.888477 32.580633 0.884331 36.583397-27.926258 19.54838l-250.312352-148.33497a25.505982 25.505982 0 0 0-34.675103 8.377877 24.482019 24.482019 0 0 0 8.564052 34.02349l250.498528 148.33497c66.511036 39.422566 119.245118 2.606451 103.327152-72.096288l-59.529472-279.262572a25.226719 25.226719 0 0 0-29.881095-19.17603 24.761281 24.761281 0 0 0-19.54838 29.32257zM232.737428 963.493109c-29.229483 16.429948-35.14054 12.147922-27.553907-19.92073l66.417948-279.262572a24.761281 24.761281 0 0 0-18.617505-29.741464 25.273263 25.273263 0 0 0-30.299989 18.617505l-66.417948 279.262572c-17.640086 74.470019 34.349296 112.077379 101.791207 74.190757l252.406822-141.865387a24.528563 24.528563 0 0 0 9.308752-33.790771 25.505982 25.505982 0 0 0-34.442384-9.308753z m-102.722083-462.179557L42.187266 423.21312a25.599069 25.599069 0 0 0-35.652522 1.722119 24.435475 24.435475 0 0 0 1.768663 35.000909l87.781535 78.100432L223.801025 651.649904a25.599069 25.599069 0 0 0 35.652522-1.72212 24.435475 24.435475 0 0 0-1.768663-35.000909z m50.406894-119.012399l30.811971-3.164976c25.459438-2.699538 51.198138-5.538708 76.192138-8.424421l23.783863-2.792626 8.843314-1.070506a24.854369 24.854369 0 0 0 21.968656-27.600451 25.133632 25.133632 0 0 0-27.926257-21.549762l-8.750227 1.023963-23.597688 2.746082c-24.761281 2.839169-50.453438 5.678339-75.726701 8.377877l-30.532708 3.118432c-20.525799 2.047926-39.376023 3.816588-55.852514 5.212901a24.761281 24.761281 0 1 0 4.282026 49.336388c16.616123-1.163594 35.699065-3.164976 56.504127-5.212901z" fill="#FFFFFF" p-id="1186"></path></svg>