<?xml version="1.0" standalone="no"?><!DOCTYPE svg PUBLIC "-//W3C//DTD SVG 1.1//EN" "http://www.w3.org/Graphics/SVG/1.1/DTD/svg11.dtd"><svg class="icon" width="16px" height="16.00px" viewBox="0 0 1024 1024" version="1.1" xmlns="http://www.w3.org/2000/svg"><path fill="#ffffff" d="M512 829.199c-25.985 0-44.133-18.147-44.133-44.132V556.134H238.934c-25.985 0-44.133-18.148-44.133-44.134 0-25.985 18.148-44.133 44.133-44.133h228.933V238.934c0-25.985 18.148-44.133 44.133-44.133 25.984 0 44.133 18.148 44.133 44.133v228.933h228.935c25.984 0 44.132 18.148 44.132 44.133 0 25.985-18.147 44.134-44.132 44.134H556.133v228.934c0 25.984-18.149 44.131-44.133 44.131z" /></svg>