<?xml version="1.0" standalone="no"?><!DOCTYPE svg PUBLIC "-//W3C//DTD SVG 1.1//EN" "http://www.w3.org/Graphics/SVG/1.1/DTD/svg11.dtd"><svg class="icon" width="200px" height="200.00px" viewBox="0 0 1024 1024" version="1.1" xmlns="http://www.w3.org/2000/svg"><path fill="#1599FF" d="M487.836108 8.077969a32.793149 32.793149 0 0 1 43.109808 0l134.730947 134.833346h188.618207a25.44605 25.44605 0 0 1 26.956429 26.956429v188.618207l134.679748 134.628549a26.034842 26.034842 0 0 1 0 37.733881l-134.730947 134.730947v188.618207a25.44605 25.44605 0 0 1-26.95643 26.956429h-188.592607l-134.730947 134.705348a26.034842 26.034842 0 0 1-37.733881 0l-134.705348-134.705348H169.88848a25.44605 25.44605 0 0 1-26.956429-26.956429v-188.567007L8.098705 530.92518a32.793149 32.793149 0 0 1 0-43.109807l134.858945-134.730948V169.867744a25.44605 25.44605 0 0 1 26.93083-26.930829h188.618207z m-102.398592 177.943153c-5.375926 5.401526-10.777452 10.777452-16.153378 10.777452H196.84491v172.439229c0 5.401526-5.375926 16.153378-5.375927 21.554904l-123.953495 118.577569 123.927896 123.953496c5.401526 5.401526 5.401526 10.777452 5.401526 21.554903v172.439229h172.439228c5.401526 0 16.153378 5.401526 21.554904 5.401526l123.927896 123.927896 123.927896-123.927896c5.401526-5.401526 10.777452-5.401526 21.554904-5.401526h172.439229V654.853076c0-5.401526 5.401526-16.178978 5.401525-21.554904l123.927896-123.927896-123.927896-123.927896c-5.401526-5.401526-5.401526-10.777452-5.401525-21.554903V196.824174h-172.41363c-5.401526 0-16.178978-5.375926-21.554903-5.375926l-129.329422-123.953496-123.953496 118.423972z m-37.708281 269.461895c-5.375926-10.777452-26.93083-10.777452-37.733881 0a26.034842 26.034842 0 0 0 0 37.733881l145.508399 145.5084a33.279542 33.279542 0 0 0 37.733881-5.375927l220.950562-220.950561a26.674833 26.674833 0 1 0-37.733881-37.733882l-204.797184 204.797184-123.927896-123.979095z m0 0"  /></svg>