<?xml version="1.0" standalone="no"?><!DOCTYPE svg PUBLIC "-//W3C//DTD SVG 1.1//EN" "http://www.w3.org/Graphics/SVG/1.1/DTD/svg11.dtd"><svg class="icon" width="200px" height="200.00px" viewBox="0 0 1024 1024" version="1.1" xmlns="http://www.w3.org/2000/svg"><path fill="#1599FF" d="M509.043747 823.558581a39.393477 39.393477 0 0 1-14.034679-2.37927l-209.435962-79.359183a38.610426 38.610426 0 0 1-25.208211-33.12907l-7.770273-93.363745a39.483829 39.483829 0 1 1 78.666484-6.505345l5.752412 69.089171 172.572341 65.324504 182.782118-65.324504 7.288396-166.910282H285.783927a39.152538 39.152538 0 0 1-39.152538-36.592564l-25.298563-235.668162a47.073398 47.073398 0 0 1 21.082136-25.659972c7.4691-7.860625 2.319035-8.553324 13.191394-8.553323h513.078953a29.665577 29.665577 0 0 1 30.779919 35.237284 28.129593 28.129593 0 0 1-30.779919 33.129071H323.792007v171.036357h410.469186a54.211207 54.211207 0 0 1 34.785524 1.023989 193.473773 193.473773 0 0 1-0.572229 67.372483l1.295045 194.97964a38.640543 38.640543 0 0 1-25.961144 34.875876l-221.362427 78.997775a36.140804 36.140804 0 0 1-13.372098 2.409387zM543.257042 1023.989459a34.213295 34.213295 0 0 1-14.215384-2.740678l-418.630984-147.755655a73.39595 73.39595 0 0 1-26.051497-53.367921L50.145882 33.430244C50.356704-7.950977 81.648617 0.933637 118.542355 0.602347c102.609767-1.35528 410.77036 1.35528 410.800477 1.35528-0.90352 0 278.10349-2.740678 370.925123-1.35528 30.508862 0.331291 73.576654-6.505345 73.576654 32.827897l-34.213295 786.694961a82.762442 82.762442 0 0 1-34.424116 53.367921l-347.4336 147.755655a34.996346 34.996346 0 0 1-14.36597 2.740678zM152.785767 820.125205l376.255891 136.823062 342.042597-136.823062 34.243412-752.481666H118.572472z m0 0"  /></svg>