<?xml version="1.0" standalone="no"?><!DOCTYPE svg PUBLIC "-//W3C//DTD SVG 1.1//EN" "http://www.w3.org/Graphics/SVG/1.1/DTD/svg11.dtd"><svg class="icon" width="16px" height="16.00px" viewBox="0 0 1024 1024" version="1.1" xmlns="http://www.w3.org/2000/svg"><path fill="#ffffff" d="M685 422H459c-19.9 0-36 16.1-36 36s16.1 36 36 36h226c19.9 0 36-16.1 36-36s-16.1-36-36-36z m0 143H459c-19.9 0-36 16.1-36 36s16.1 36 36 36h226c19.9 0 36-16.1 36-36s-16.1-36-36-36zM898.8 272c-0.7-6.7-3.3-12.9-7.3-18l-0.5-0.6c-0.5-0.7-1.1-1.3-1.7-1.9L740.5 79.8l-0.2 0.1c-6.1-6.8-14.8-11.2-24.3-11.8V68H322.8c-39.6 0-71.8 32-71.8 71.6V200h-52c-39.6 0-72 32.2-72 71.8v624.4c0 39.6 32.4 71.8 72 71.8h504.5c39.6 0 71.5-32.2 71.5-71.8V836h52.3c39.6 0 71.7-32.4 71.7-72V272h-0.2z m-167.8-0.2V160.4l96.2 111.1c0 0.2 0 0.3-0.1 0.5h-96.4c0.1 0 0.3-0.1 0.3-0.2zM703 896H199.1s-0.1 0.1-0.1 0V271.9l0.1 0.1H251v492c0 39.6 32.2 72 71.8 72H703v60z m124.1-132H322.9s0.1-0.1 0.1-0.2V140h336v131.9c0 39.6 32.1 72.1 71.7 72.1H827v419.8s0.2 0.2 0.1 0.2z" /></svg>