<?xml version="1.0" standalone="no"?><!DOCTYPE svg PUBLIC "-//W3C//DTD SVG 1.1//EN" "http://www.w3.org/Graphics/SVG/1.1/DTD/svg11.dtd"><svg class="icon" width="200px" height="200.00px" viewBox="0 0 1024 1024" version="1.1" xmlns="http://www.w3.org/2000/svg"><path fill="#333333" d="M677.524322 416.378888h152.120823a67.896648 67.896648 0 0 1 68.058306 67.57333v517.307794l22.686103-22.524444H194.110966a67.788875 67.788875 0 0 1-67.842762-67.57333V393.746672l-22.686102 22.524443h227.669316a22.524444 22.524444 0 1 0 0-44.995001H103.582102A22.57833 22.57833 0 0 0 80.896 393.800558v517.307793a113.16108 113.16108 0 0 0 113.16108 112.568332h726.278587a22.57833 22.57833 0 0 0 22.686103-22.524444v-517.307793a113.16108 113.16108 0 0 0-113.430511-112.568332h-152.120823a22.524444 22.524444 0 1 0 0 44.995001z m-352.793138-141.720781L527.558948 48.767037h-33.786665l202.558333 222.119034a22.793875 22.793875 0 0 0 32.062306 1.616586 22.362785 22.362785 0 0 0 1.616586-31.792874L527.451175 18.590749l-16.974161-18.590749-16.812504 18.698521-202.827764 225.89107a22.362785 22.362785 0 0 0 1.832132 31.792875 22.847761 22.847761 0 0 0 32.00842-1.832132zM489.515271 68.058307l-0.43109 711.298216a22.686102 22.686102 0 0 0 45.372204 0l0.43109-711.298216a22.686102 22.686102 0 0 0-45.372204 0z"  /></svg>