<?xml version="1.0" standalone="no"?><!DOCTYPE svg PUBLIC "-//W3C//DTD SVG 1.1//EN" "http://www.w3.org/Graphics/SVG/1.1/DTD/svg11.dtd"><svg class="icon" width="16px" height="16.00px" viewBox="0 0 1024 1024" version="1.1" xmlns="http://www.w3.org/2000/svg"><path fill="#ffffff" d="M128 906.666667c-2.133333 0-6.4-2.133333-8.533333-4.266667-2.133333-2.133333-4.266667-6.4-2.133334-10.666667l185.6-526.933333c2.133333-4.266667 4.266667-6.4 8.533334-6.4s6.4 0 10.666666 2.133333l347.733334 358.4c2.133333 2.133333 4.266667 6.4 2.133333 10.666667s-4.266667 6.4-6.4 8.533333l-533.333333 170.666667c-2.133333-2.133333-2.133333-2.133333-4.266667-2.133333z m189.866667-518.4l-172.8 490.666666 497.066666-157.866666-324.266666-332.8zM490.666667 416c-2.133333 0-6.4 0-8.533334-2.133333-4.266667-4.266667-4.266667-10.666667 0-14.933334l106.666667-106.666666c25.6-25.6 42.666667-51.2 44.8-74.666667 2.133333-21.333333-4.266667-40.533333-23.466667-59.733333-4.266667-4.266667-4.266667-10.666667 0-14.933334s10.666667-4.266667 14.933334 0c23.466667 23.466667 34.133333 49.066667 29.866666 78.933334-4.266667 27.733333-21.333333 55.466667-51.2 85.333333l-106.666666 106.666667c0 2.133333-4.266667 2.133333-6.4 2.133333zM618.666667 544c-2.133333 0-6.4 0-8.533334-2.133333-4.266667-4.266667-4.266667-10.666667 0-14.933334l106.666667-106.666666c74.666667-74.666667 153.6-74.666667 228.266667 0 4.266667 4.266667 4.266667 10.666667 0 14.933333s-10.666667 4.266667-14.933334 0c-66.133333-66.133333-132.266667-66.133333-198.4 0l-106.666666 106.666667c0 2.133333-4.266667 2.133333-6.4 2.133333zM426.666667 106.666667m-42.666667 0a42.666667 42.666667 0 1 0 85.333333 0 42.666667 42.666667 0 1 0-85.333333 0ZM896 85.333333m-42.666667 0a42.666667 42.666667 0 1 0 85.333334 0 42.666667 42.666667 0 1 0-85.333334 0ZM896 576m-42.666667 0a42.666667 42.666667 0 1 0 85.333334 0 42.666667 42.666667 0 1 0-85.333334 0ZM832 768m-42.666667 0a42.666667 42.666667 0 1 0 85.333334 0 42.666667 42.666667 0 1 0-85.333334 0Z" /></svg>