<?xml version="1.0" standalone="no"?><!DOCTYPE svg PUBLIC "-//W3C//DTD SVG 1.1//EN" "http://www.w3.org/Graphics/SVG/1.1/DTD/svg11.dtd"><svg class="icon" width="200px" height="200.00px" viewBox="0 0 1024 1024" version="1.1" xmlns="http://www.w3.org/2000/svg"><path fill="#333333" d="M1012.9408 538.624l-116.89984 116.69504a37.6832 37.6832 0 0 0-11.01824 26.66496v165.19168a37.76512 37.76512 0 0 1-37.6832 37.76512h-165.2736a37.6832 37.6832 0 0 0-26.66496 11.01824l-116.81792 116.89984a37.84704 37.84704 0 0 1-53.248 0l-117.06368-116.77696a37.6832 37.6832 0 0 0-26.66496-11.01824H176.66048a37.76512 37.76512 0 0 1-37.76512-37.76512v-165.35552a37.6832 37.6832 0 0 0-11.01824-26.66496L11.10016 538.46016a37.60128 37.60128 0 0 1 0-53.248l116.81792-116.89984a37.6832 37.6832 0 0 0 10.97728-26.66496v-165.0688a37.76512 37.76512 0 0 1 37.76512-37.6832h165.23264a37.96992 37.96992 0 0 0 26.66496-11.01824L485.376 10.97728a37.84704 37.84704 0 0 1 53.248 0l116.81792 116.89984a37.96992 37.96992 0 0 0 26.66496 11.01824h165.39648a37.76512 37.76512 0 0 1 37.6832 37.6832v165.2736a37.6832 37.6832 0 0 0 11.01824 26.66496l116.89984 116.81792a37.76512 37.76512 0 0 1 0 53.248z m-266.56768-184.32a36.864 36.864 0 0 0-52.224 0l-235.1104 235.1104-130.6624-130.70336a37.02784 37.02784 0 1 0-52.26496 52.4288l156.71296 156.79488a36.864 36.864 0 0 0 52.30592 0l261.20192-261.28384a36.864 36.864 0 0 0 0-52.38784z" /></svg>