<?xml version="1.0" standalone="no"?><!DOCTYPE svg PUBLIC "-//W3C//DTD SVG 1.1//EN" "http://www.w3.org/Graphics/SVG/1.1/DTD/svg11.dtd"><svg class="icon" width="200px" height="200.00px" viewBox="0 0 1024 1024" version="1.1" xmlns="http://www.w3.org/2000/svg"><path fill="#333333" d="M703.822726 341.350589a30.320733 30.320733 0 0 1-4.26652 12.799559l-183.289686 341.321577a53.871922 53.871922 0 0 1-49.036533 27.703935 46.761056 46.761056 0 0 1-40.503494-19.227783l-100.120996-115.139145a24.233832 24.233832 0 0 1-6.371336-17.066079 28.443465 28.443465 0 0 1 27.703934-27.703934 30.263846 30.263846 0 0 1 12.79956 4.266519l91.587956 49.036534 200.298879-273.057262a30.491394 30.491394 0 0 1 23.437415-10.694743 29.808751 29.808751 0 0 1 27.760821 27.760822zM512.056887 42.694209a82.315387 82.315387 0 0 1 57.512686 23.494302l89.48314 89.596914h125.720114A83.282465 83.282465 0 0 1 867.884631 238.954116v125.890775l89.48314 89.596914a83.73756 83.73756 0 0 1 0 117.300848l-89.48314 89.596914v125.890775a83.282465 83.282465 0 0 1-83.111804 83.168691h-125.720114l-89.48314 89.596914a91.019087 91.019087 0 0 1-57.512686 21.332598 82.315387 82.315387 0 0 1-57.512686-23.494302l-89.596914-89.596913H238.999626A83.282465 83.282465 0 0 1 156.115369 785.068639v-125.890775l-89.48314-89.596914a83.73756 83.73756 0 0 1 0-117.300849l89.48314-89.596913V236.792413a81.462083 81.462083 0 0 1 82.884257-81.063875h125.720114l89.767574-89.596914A82.315387 82.315387 0 0 1 512.056887 42.694209m0-42.665197a117.187075 117.187075 0 0 0-87.435211 36.236974l-76.683581 76.797355H238.999626A126.004549 126.004549 0 0 0 113.507059 238.954116v108.824696L36.766591 424.576167a125.151245 125.151245 0 0 0 0 177.089011l76.740468 76.797355v108.767809a126.004549 126.004549 0 0 0 125.492567 125.833888h108.938469l76.683581 76.797355a127.938704 127.938704 0 0 0 87.435211 34.132157 120.657177 120.657177 0 0 0 87.378324-36.293861l76.740467-76.797354h108.710923a126.004549 126.004549 0 0 0 125.378792-125.833888v-108.824696l76.740468-76.797355a125.151245 125.151245 0 0 0 0-177.089011l-76.740468-76.740468V236.792413a126.004549 126.004549 0 0 0-125.720114-125.890775h-108.426488L599.378324 34.16117A124.070393 124.070393 0 0 0 512.056887 0.029012z"  /></svg>