<?xml version="1.0" standalone="no"?><!DOCTYPE svg PUBLIC "-//W3C//DTD SVG 1.1//EN" "http://www.w3.org/Graphics/SVG/1.1/DTD/svg11.dtd"><svg t="1598280574592" class="icon" viewBox="0 0 1024 1024" version="1.1" xmlns="http://www.w3.org/2000/svg" p-id="1053" xmlns:xlink="http://www.w3.org/1999/xlink" width="200" height="200"><defs><style type="text/css"></style></defs><path d="M460.785758 486.384966h25.599208V243.192483a243.192483 243.192483 0 1 0-243.192483 243.192483zM51.198418 243.192483a191.994066 191.994066 0 0 1 383.988131 0V460.785758l25.599209-25.599209H243.192483A191.994066 191.994066 0 0 1 51.198418 243.192483z m409.58734 345.589318l-25.599209-25.599208v217.593274a191.994066 191.994066 0 1 1-191.994066-191.994066zM0 780.775867a243.192483 243.192483 0 1 0 486.384966 0V537.583384H243.192483A243.192483 243.192483 0 0 0 0 780.775867zM563.182593 435.186549l25.599208 25.599209V243.192483a191.994066 191.994066 0 1 1 191.994066 191.994066zM1023.96835 243.192483a243.192483 243.192483 0 1 0-486.384966 0v243.192483h243.192483A243.192483 243.192483 0 0 0 1023.96835 243.192483z m0 537.583384a243.192483 243.192483 0 0 0-243.192483-243.192483H537.583384v243.192483a243.285571 243.285571 0 0 0 350.569528 218.244891 25.599209 25.599209 0 0 0-22.620392-45.938944 192.087154 192.087154 0 0 1-276.750719-172.212859V563.182593l-25.599208 25.599208h217.593274a192.180242 192.180242 0 0 1 184.174671 246.683285 25.599209 25.599209 0 1 0 49.103937 14.521733A243.285571 243.285571 0 0 0 1023.96835 780.775867z" fill="#FFFFFF" p-id="1054"></path></svg>