<?xml version="1.0" standalone="no"?><!DOCTYPE svg PUBLIC "-//W3C//DTD SVG 1.1//EN" "http://www.w3.org/Graphics/SVG/1.1/DTD/svg11.dtd"><svg class="icon" width="200px" height="173.56px" viewBox="0 0 1180 1024" version="1.1" xmlns="http://www.w3.org/2000/svg"><path d="M909.000974 1010.434653a41.876047 41.876047 0 0 1-57.622045-12.762943L263.301782 71.18777A41.725006 41.725006 0 0 1 333.68677 26.328668l588.303708 926.48394a42.140368 42.140368 0 0 1-12.989504 57.622045z" fill="#A1E4FF" /><path d="M905.942399 5.787126a41.762766 41.762766 0 0 1 14.16007 57.168923L355.210076 1003.82662a41.649486 41.649486 0 1 1-71.328993-42.971092L848.773476 20.211518a42.064848 42.064848 0 0 1 57.168923-14.424392z" fill="#A1E4FF" /><path d="M1180.572236 521.553516a41.536205 41.536205 0 0 1-41.536205 41.536205H41.573966a41.536205 41.536205 0 0 1 0-83.07241h1097.462065a41.536205 41.536205 0 0 1 41.536205 41.536205z" fill="#A1E4FF" /><path d="M455.803213 524.649851a146.849366 146.849366 0 1 0 146.660565-153.986041 150.436584 150.436584 0 0 0-146.660565 153.986041z" fill="#A1E4FF" /><path d="M603.407783 615.651901a43.650776 43.650776 0 0 1-43.461975-43.461975v-95.495512a43.461975 43.461975 0 1 1 86.84843 0v95.419992a43.499735 43.499735 0 0 1-43.386455 43.537495z" fill="#FFFFFF" /><path d="M690.105172 524.649851a45.765346 45.765346 0 0 1-45.576546 45.576546h-82.430487a45.576545 45.576545 0 0 1 0-91.153091h82.430487a45.614306 45.614306 0 0 1 45.576546 45.576545z" fill="#FFFFFF" /><path d="M644.792948 273.846691a159.121427 159.121427 0 0 1-39.685957 95.646553 159.121427 159.121427 0 0 1-39.685956-95.646553c0-52.864261 17.709528-53.846026 39.685956-53.846026s39.685956 0.944005 39.685957 53.846026z" fill="#A6F2FF" /><path d="M478.006203 107.097707a144.168393 144.168393 0 0 1-62.83295 51.731456 158.215182 158.215182 0 0 1 21.485546-80.769039c23.146994-36.589621 33.077924-30.925593 44.405979-22.920434s20.088419 15.330636-3.058575 51.958017zM271.344701 196.136227a138.013482 138.013482 0 0 1 79.296392 10.15749 142.393664 142.393664 0 0 1-69.667544 41.083084c-41.083083 8.496042-44.179418-2.832014-46.747111-16.992084s-3.96482-25.752447 37.118263-34.28625zM906.395521 238.654197a144.545995 144.545995 0 0 1-65.664965-47.464554A136.918437 136.918437 0 0 1 920.555591 188.810751c40.139078 12.498622 37.760187 23.864438 33.984168 37.760187s-8.04292 24.544121-48.181998 12.045499z m-157.044616-169.92084a157.913101 157.913101 0 0 1 23.600116 80.051596 143.488709 143.488709 0 0 1-64.003516-50.070007c-24.090999-35.909938-15.594957-43.461975-4.493462-51.731456s20.579302-14.046789 44.896862 21.825388z m223.653585 577.730857a156.025091 156.025091 0 0 1 14.424392-82.430488 154.061562 154.061562 0 0 1 34.701611 75.520373c5.664028 43.688536-5.210906 46.067428-18.880093 47.955437s-24.393081 2.416652-30.24591-41.007562z m83.374492-220.104129a145.150158 145.150158 0 0 1-60.000936 55.280914 158.592784 158.592784 0 0 1 17.256405-81.939605c21.258985-37.760187 31.416475-32.587041 43.235414-25.261565s20.994664 14.16007-0.490883 51.920256z m-353.171026 480.385095a138.542125 138.542125 0 0 1 72.499559-34.965933 152.739955 152.739955 0 0 1-38.741952 73.217002c-30.699032 29.981588-38.968513 21.976429-48.181998 11.328056s-16.538962-19.597537 14.424391-49.579125z m222.785102-61.888946a135.48355 135.48355 0 0 1-79.598474-6.834593 141.789501 141.789501 0 0 1 67.968336-43.915098c40.856522-10.384051 44.179418 0.944005 47.464555 14.877514s4.568983 25.676927-36.060978 35.872177z m-643.320301-36.589621a141.56294 141.56294 0 0 1 72.272998 35.645617 139.410609 139.410609 0 0 1-78.390148 16.3124c-41.536205-5.210906-41.083083-16.992084-39.421635-31.416475s3.738258-25.979008 45.312224-20.579302z m188.800934 138.617646a151.456109 151.456109 0 0 1-46.52055-68.270418 137.182758 137.182758 0 0 1 75.822455 26.20557c33.757607 25.979008 27.867018 35.909938 19.824098 47.691116s-15.670477 20.579302-49.465845-5.626268z m-252.993251-549.070875a158.592784 158.592784 0 0 1-1.888009 83.827615 148.737375 148.737375 0 0 1-45.576546-68.72354c-12.0455-42.027088-1.661448-46.293989 11.328056-50.52313s24.090999-6.608033 36.136499 35.419055z m-44.859102 237.360534a152.173552 152.173552 0 0 1 40.629961-72.046436 158.328463 158.328463 0 0 1 7.778599 83.374492c-9.213486 42.971092-20.088419 41.347404-33.531046 38.251069s-24.35532-6.608033-15.141835-49.616885z" fill="#A6EAFF" /><path d="M565.118954 774.509007a159.121427 159.121427 0 0 1 39.685956-95.646553 159.121427 159.121427 0 0 1 39.685956 95.646553c0 52.864261-17.709528 53.846026-39.685956 53.846026s-39.685956-0.944005-39.685956-53.846026z m-162.368803-392.517141a154.816765 154.816765 0 0 1 63.776955 80.051596 142.657985 142.657985 0 0 1-99.19601-5.210906c-44.859102-23.373556-38.024508-40.856522-28.093579-61.398063s18.313691-36.816182 63.399354-13.442627z m401.239744 293.094569a154.514684 154.514684 0 0 1-72.272998-72.272997 141.260858 141.260858 0 0 1 99.196011-5.890589c47.464555 18.426971 42.291409 36.136499 34.965933 57.848606s-14.613192 38.741952-61.964467 20.31498zM368.501662 596.431966a141.713981 141.713981 0 0 1 99.422571 3.322897 157.195657 157.195657 0 0 1-71.328992 74.161006c-47.237994 19.597537-54.299148 2.605453-62.115507-18.653532s-13.065025-39.232834 33.946407-58.830371z m460.674277-149.001696a143.035587 143.035587 0 0 1-99.422571-4.946585 156.742535 156.742535 0 0 1 72.499558-72.726119c47.464555-18.653532 54.56347-1.661448 61.888946 19.824098s12.272061 39.195074-35.192494 57.848606z" fill="#BDF3FF" /></svg>