<?xml version="1.0" standalone="no"?><!DOCTYPE svg PUBLIC "-//W3C//DTD SVG 1.1//EN" "http://www.w3.org/Graphics/SVG/1.1/DTD/svg11.dtd"><svg class="icon" width="200px" height="200.00px" viewBox="0 0 1024 1024" version="1.1" xmlns="http://www.w3.org/2000/svg"><path d="M152.885309 0h713.917803v1024H152.885309z" fill="#E83828" /><path d="M155.767506 0h715.347185L513.347368 535.807414z" fill="#F16013" /><path d="M303.603112 506.938581a209.837986 209.837986 0 1 0 209.837986-209.837986 209.837986 209.837986 0 0 0-209.837986 209.837986z" fill="#EBC14C" /><path d="M605.038719 537.963204h-74.983982v-39.671213h74.983982a16.590206 16.590206 0 0 0 0-33.180412h-49.044211l27.392586-27.392586a16.402746 16.402746 0 1 0-23.081007-23.081007l-46.864989 46.864989-46.162013-46.162014a16.402746 16.402746 0 1 0-23.081007 23.081007l27.392586 27.392586h-49.044211a16.590206 16.590206 0 1 0 0 33.180412h74.983982v39.671212h-74.983982a16.590206 16.590206 0 1 0 0 33.180412h74.983982v54.808605a14.457849 14.457849 0 0 0 14.410984 14.410983h3.608604a14.457849 14.457849 0 0 0 14.434416-14.410983v-54.808605h74.983982a16.402746 16.402746 0 0 0 16.590206-16.590206 16.941693 16.941693 0 0 0-16.519908-17.29318z" fill="#E29C4E" /></svg>