<?xml version="1.0" standalone="no"?><!DOCTYPE svg PUBLIC "-//W3C//DTD SVG 1.1//EN" "http://www.w3.org/Graphics/SVG/1.1/DTD/svg11.dtd"><svg class="icon" width="200px" height="200.00px" viewBox="0 0 1024 1024" version="1.1" xmlns="http://www.w3.org/2000/svg"><path d="M516.233494 62.139812a438.595151 438.595151 0 1 0 438.595151 438.595151A438.020973 438.020973 0 0 0 516.233494 62.139812z" fill="#F3EAEC" /><path d="M510.945911 1023.99143a481.898484 481.898484 0 1 1 481.898485-480.167379 483.038271 483.038271 0 0 1-481.898485 480.167379z m0-875.33065a395.283248 395.283248 0 1 0 395.283248 395.283248 395.128991 395.128991 0 0 0-395.283248-395.283248z" fill="#677AAE" /><path d="M686.053176 580.220104H493.549164V320.280126h34.664948v225.386437H686.053176z m-480.767267 293.996468l40.346743 32.942413-76.734226 93.89102-40.346743-32.813866z m613.779545 0l76.734226 94.010997-40.346743 32.813866-76.734226-94.010997zM220.034581 0.49705l33.55944 39.729716L39.28837 221.581434 5.608951 181.851719zM803.95685 0l214.425629 181.354669-33.559441 39.746855L770.397409 39.729716z" fill="#677AAE" /></svg>