<?xml version="1.0" standalone="no"?><!DOCTYPE svg PUBLIC "-//W3C//DTD SVG 1.1//EN" "http://www.w3.org/Graphics/SVG/1.1/DTD/svg11.dtd"><svg class="icon" width="200px" height="200.00px" viewBox="0 0 1024 1024" version="1.1" xmlns="http://www.w3.org/2000/svg"><path d="M127.017028 624.229716a399.770284 399.770284 0 1 0 399.770284-399.770284 399.770284 399.770284 0 0 0-399.770284 399.770284z" fill="#F99585" /><path d="M202.641736 900.929104c-96.252866 0-162.069226-27.836617-186.415581-79.23606-24.004452-50.573178-4.27379-119.131886 55.45242-192.726544a7.92788 7.92788 0 0 1 12.287146 10.029159c-55.680356 68.637062-74.613244 131.062883-53.422371 175.823707 11.72443 24.567168 34.60345 43.051308 68.302282 55.003672 33.478019 11.945242 75.966611 16.902838 126.119532 14.765944 104.251976-4.508848 229.474012-38.998331 352.658876-97.378298 123.191987-58.273122 229.360045-133.335114 298.901725-211.103839 33.478019-37.417028 56.463884-73.366722 68.523094-106.844741 12.05921-33.584864 12.287145-63.002782 0.676684-87.56995-16.340122-34.60345-56.015136-57.482471-114.623039-66.158264a7.892265 7.892265 0 0 1-6.652866-9.017696 7.970618 7.970618 0 0 1 9.017696-6.652866c64.106845 9.580412 107.863328 35.500946 126.568281 75.061992 26.262437 55.452421 0.790651 130.628381-71.678575 211.7734-71.001892 79.342905-178.86522 155.651419-303.973289 214.928882-125.108069 59.170618-252.467001 94.336784-358.855871 98.845631-7.78542 0.356149-15.44975 0.455871-22.886144 0.455871z" fill="#FFDC0D" /><path d="M237.807902 637.642293a90.276683 90.276683 0 1 0 90.276683-90.276684 90.276683 90.276683 0 0 0-90.276683 90.276684z" fill="#FFDC0D" /><path d="M922.611464 416.958041a47.560156 47.560156 0 1 0 47.560155-47.560156 47.560156 47.560156 0 0 0-47.560155 47.560156z" fill="#F99585" /><path d="M539.074457 398.929772a54.775737 54.775737 0 1 0 54.775738-54.775737 54.775737 54.775737 0 0 0-54.775738 54.775737z" fill="#FFDC0D" /><path d="M683.222259 595.039733a27.615804 27.615804 0 1 0 27.615804-27.615804 27.615804 27.615804 0 0 0-27.615804 27.615804z" fill="#FFE843" /><path d="M424.494157 175.631386c-26.390651-12.166055-28.150028-15.207568-25.486032-44.148247L414.194324 35.62916a24.403339 24.403339 0 0 0-36.519533-23.37763L76.180301 186.337229a28.256873 28.256873 0 0 0-10.342571 38.59232L305.689928 640.356149a28.24975 28.24975 0 1 0 48.934891-28.249749l-114.608792-198.503284 277.105398-159.982192a24.424708 24.424708 0 0 0-1.98019-43.314858z" fill="#F56C6C" /></svg>