<?xml version="1.0" standalone="no"?><!DOCTYPE svg PUBLIC "-//W3C//DTD SVG 1.1//EN" "http://www.w3.org/Graphics/SVG/1.1/DTD/svg11.dtd"><svg class="icon" width="200px" height="83.59px" viewBox="0 0 2450 1024" version="1.1" xmlns="http://www.w3.org/2000/svg"><path d="M1774.359813 107.890924H254.997149a217.247188 217.247188 0 0 0-216.940164 230.839965l62.953816 309.019366a217.30301 217.30301 0 0 0 216.940165 203.752101h1393.45503a217.470478 217.470478 0 0 0 216.940165-203.752101l62.953816-309.019366a217.554212 217.554212 0 0 0-216.940164-230.839965z" fill="#FD6155" /><path d="M645.182421 395.51632a36.800979 36.800979 0 0 0-36.912624 36.912624v238.194578a36.912624 36.912624 0 1 0 73.825247 0v-238.194578a36.800979 36.800979 0 0 0-36.912623-36.912624z m369.391393 0a36.800979 36.800979 0 0 0-36.912624 36.912624v238.194578a36.912624 36.912624 0 1 0 73.825247 0v-238.194578a36.800979 36.800979 0 0 0-36.912623-36.912624z m369.391393 0a36.800979 36.800979 0 0 0-36.912624 36.912624v238.194578a36.912624 36.912624 0 1 0 73.825248 0v-238.194578a36.800979 36.800979 0 0 0-36.898668-36.912624z" fill="#FEF3D5" /><path d="M0 0m83.73374 0l1870.053522 0q83.73374 0 83.73374 83.73374l0 111.644986q0 83.73374-83.73374 83.73374l-1870.053522 0q-83.73374 0-83.73374-83.73374l0-111.644986q0-83.73374 83.73374-83.73374Z" fill="#FEC053" /></svg>