<?xml version="1.0" standalone="no"?><!DOCTYPE svg PUBLIC "-//W3C//DTD SVG 1.1//EN" "http://www.w3.org/Graphics/SVG/1.1/DTD/svg11.dtd"><svg class="icon" width="200px" height="199.80px" viewBox="0 0 1025 1024" version="1.1" xmlns="http://www.w3.org/2000/svg"><path d="M0 511.331458A511.331458 511.331458 0 1 0 511.331458 0 511.331458 511.331458 0 0 0 0 511.331458z" fill="#FFD96B" /><path d="M872.984427 149.904784L149.904784 873.113739A511.331458 511.331458 0 1 0 872.984427 149.904784z" fill="#FDC223" /><path d="M139.656818 511.331458a371.771623 371.771623 0 1 0 743.543247 0 371.771623 371.771623 0 1 0-743.543247 0z" fill="#F9AB10" /><path d="M766.205151 241.295947A371.319032 371.319032 0 0 0 241.295947 766.205151c0-0.193968 524.909204-524.909204 524.909204-524.909204z" fill="#F9B721" /><path d="M479.423754 616.365023H387.935607v-54.601936h91.488147v-29.515435H387.935607v-54.601936h64.332655L375.521667 321.986554h75.938395l49.170838 105.130549a198.78467 198.78467 0 0 1 13.383779 34.817221 223.806517 223.806517 0 0 1 13.383778-34.817221l50.366973-105.130549h75.938395l-77.587121 155.723818h65.399478v54.569608h-92.813594v29.547762h92.813594v54.569609h-92.813594v115.507827h-69.214178z" fill="#D3830D" /><path d="M580.545635 468.755525l-147.674154 147.674154h46.422961v115.604811h69.34349v-115.507827h92.813594v-54.601937h-92.813594v-29.547762h92.813594v-54.601936h-65.399478z" fill="#BF790A" /></svg>