<?xml version="1.0" standalone="no"?><!DOCTYPE svg PUBLIC "-//W3C//DTD SVG 1.1//EN" "http://www.w3.org/Graphics/SVG/1.1/DTD/svg11.dtd"><svg class="icon" width="200px" height="200.00px" viewBox="0 0 1024 1024" version="1.1" xmlns="http://www.w3.org/2000/svg"><path fill="#333333" d="M74.157017 1022.786202a53.586158 53.586158 0 0 1-53.903806-53.903805V274.553257a53.595784 53.595784 0 0 1 53.903806-53.903806h227.93609c136.338125 0 308.762922 151.334933 440.856122 151.334934h206.855852a53.586158 53.586158 0 0 1 53.903806 53.903805v544.207042a53.586158 53.586158 0 0 1-53.903806 53.903805z m226.299725-776.580572H101.099294a53.586158 53.586158 0 0 0-53.903806 53.903806v68.871737h583.316178c-109.617238-43.354061-230.96818-122.737039-330.054924-122.73704zM924.297031 397.540564H47.21474v544.187791a53.595784 53.595784 0 0 0 53.903805 53.903805h821.561372a53.595784 53.595784 0 0 0 53.903805-53.903805V453.061483a51.70915 51.70915 0 0 0-52.238563-55.520919z m0 0"  /><path fill="#333333" d="M753.287209 58.803276a13.918733 13.918733 0 1 0-16.363656 22.485587 1768.814866 1768.814866 0 0 1 43.575452 33.035333 13.918733 13.918733 0 0 0 16.363655-22.485588c-14.996809-10.549745-26.942277-21.089864-43.575451-33.035332z m-37.482396 110.810823l-11.945469-52.479205a13.793599 13.793599 0 0 0-26.951902 5.852413l11.945468 52.479205a13.764722 13.764722 0 0 0 16.363655 10.588247 12.879159 12.879159 0 0 0 10.588248-16.44066z m66.061038-5.852414l-53.903805 8.903754c-7.498404 1.405349-13.581834 8.903754-11.945468 14.996809 1.405349 6.093055 7.498404 13.591459 14.996808 11.945468l53.903805-8.903754c7.498404-1.405349 13.581834-8.903754 11.945469-14.996808-1.645991-9.144396-7.498404-15.035311-14.996809-11.955094z m-96.04503-72.192596a13.764722 13.764722 0 0 0 10.588247-16.363655l-6.093055-29.983992a80.24929 80.24929 0 0 0 13.59146 8.903754 13.918733 13.918733 0 0 0 16.363655-22.485587c-21.080238-14.996809-28.578642-21.080238-38.887745-28.578643l-4.447064-3.041715h-4.447064l-7.498405 1.40535a13.235309 13.235309 0 0 0-11.945468 14.996808 15.401087 15.401087 0 0 0 6.093055 10.588248l11.945469 52.479204a11.11766 11.11766 0 0 0 14.756166 12.186111zM93.600889 199.569213a13.235309 13.235309 0 0 0 11.945468-14.996808l-4.447063-52.479205v-1.405349a13.966861 13.966861 0 0 0-14.996809-13.59146 13.206432 13.206432 0 0 0-13.59146 14.996809v3.041715l4.447064 52.479204a13.899481 13.899481 0 0 0 16.633175 11.945469z m794.619095 99.096371a13.562582 13.562582 0 0 0-26.951903 3.041715l4.447064 53.903805a13.562582 13.562582 0 0 0 26.951903-3.041715z m-16.363655-25.536928a13.235309 13.235309 0 0 0 11.945468-14.996809l-4.447064-53.903805a13.562582 13.562582 0 0 0-26.951902 3.041715l4.447063 53.903805a14.197877 14.197877 0 0 0 14.967932 11.983971z m-11.945468-96.04503h4.447063a13.235309 13.235309 0 0 0 11.945469-14.996809v-7.498404l-4.447064-4.447064c-13.581834-10.588247-25.536928-22.485587-40.524111-34.440681a13.918733 13.918733 0 1 0-16.363655 22.485587l19.443873 14.996809-11.945469 1.405349c-7.498404 1.405349-13.591459 8.903754-11.945468 14.996809a13.235309 13.235309 0 0 0 14.996809 11.945468l34.440681-4.447064zM622.84 7.671667l-53.903805 4.447064a13.562582 13.562582 0 0 0 3.041714 26.951902l53.903806-4.447064a13.235309 13.235309 0 0 0 11.945468-14.996808A14.900552 14.900552 0 0 0 622.753369 7.739046zM105.546357 310.639929a13.235309 13.235309 0 0 0-11.945468 14.996809l4.447064 53.903805a13.562582 13.562582 0 1 0 26.951903-3.041715l-4.447064-53.903805c-1.414975-8.874877-7.50803-13.601085-15.006435-11.955094z m40.524111-251.836653l-11.945468 1.405349a64.0974 64.0974 0 0 0-44.9808 23.890937 13.783973 13.783973 0 0 0 20.849221 18.038523 37.992557 37.992557 0 0 1 26.951903-14.996808l11.945468-1.40535a13.235309 13.235309 0 0 0 11.945469-14.996808 11.666324 11.666324 0 0 0-14.756167-11.945469z m382.312739-40.524111l-53.903805 4.447064a13.562582 13.562582 0 1 0 3.041714 26.951903l53.903806-4.447064a13.235309 13.235309 0 0 0 11.945468-14.996809c-1.386098-6.102681-7.479153-13.601085-14.94868-11.955094zM104.131383 295.64312a13.235309 13.235309 0 0 0 11.945468-14.996808l-4.447064-53.903806a13.562582 13.562582 0 0 0-26.951903 3.041715l4.447064 53.903805a12.705897 12.705897 0 0 0 15.01606 11.955094z m137.984115-247.379963l-53.903805 4.447064a13.562582 13.562582 0 0 0 3.041715 26.951903l53.903805-4.447064a13.235309 13.235309 0 0 0 11.945468-14.996809 14.65991 14.65991 0 0 0-14.977557-11.955094z m190.453695-19.443873l-55.520919 4.447064a13.562582 13.562582 0 1 0 3.041714 26.951903l53.903806-4.447064a13.235309 13.235309 0 0 0 11.945468-14.996809c-1.405349-7.498404-5.852413-13.591459-13.350818-11.945468zM337.929512 39.128387l-53.903805 4.447064a13.562582 13.562582 0 1 0 3.041715 26.951903l53.903805-4.447064a13.235309 13.235309 0 0 0 11.945468-14.996809 13.562582 13.562582 0 0 0-14.977557-11.955094z m152.952048 517.245514a10.588247 10.588247 0 0 0-10.588248-11.945468c-37.482396 0-67.466388-25.536928-82.463196-37.482396-4.447064-3.041715-4.447064-4.447064-7.498405-4.447064a10.780761 10.780761 0 0 0-14.987183 4.447064c-4.447064 4.447064-1.405349 11.945468 4.447064 16.363655 1.405349 1.405349 4.45669 3.041715 4.45669 4.447064 16.363655 13.591459 51.06423 40.524111 94.408665 40.524111a11.608569 11.608569 0 0 0 12.18611-11.945468z m-31.389341 271.511542l55.520919-34.440681 61.373333 34.440681a5.650274 5.650274 0 0 0 4.447064 1.405349 9.413915 9.413915 0 0 0 8.903753-7.498404 15.160445 15.160445 0 0 0-6.093055-16.363655l-67.466388-36.077047a7.190383 7.190383 0 0 0-7.498404 0l-58.562634 37.482396a13.562582 13.562582 0 0 0-4.447064 16.363655c3.282357 4.687706 7.700544 9.13477 13.822476 4.687706z m176.871861-305.942597a13.562582 13.562582 0 0 0 4.447064-16.363656 11.627821 11.627821 0 0 0-14.996809-4.447063 29.983992 29.983992 0 0 1-7.498404 4.447063c-16.363655 11.945468-46.38615 37.482396-82.463197 37.482396a11.637447 11.637447 0 0 0-10.588247 11.945469 10.588247 10.588247 0 0 0 10.588247 11.945468c43.575451 0 77.968004-28.578642 94.408665-40.524111a25.748693 25.748693 0 0 0 6.093055-4.447064zM430.913576 616.35151c-3.041715-8.903754-10.588247-16.363655-16.363655-16.363655H249.623528c-7.498404 0-13.591459 7.498404-13.591459 18.038523 0 8.903754 4.447064 18.038523 13.591459 18.038524h31.418218a133.094271 133.094271 0 0 1 4.447064 71.923077c-22.485587 67.466388 0 112.447188 0 112.447188a162.827995 162.827995 0 0 1 4.447064 79.411856 123.304954 123.304954 0 0 1 88.556252 11.945468c25.536928-34.440681 4.447064-88.556251 4.447064-88.556251-16.363655-43.575451 0-91.36695 0-91.36695a211.85158 211.85158 0 0 0 7.498404-98.855729h28.578642c6.093055 1.405349 11.945468-6.093055 11.945469-16.633174z m346.476334 21.080238c7.498404 0 13.591459-7.498404 13.59146-18.038523-1.405349-11.945468-8.903754-21.080238-14.996809-21.080238H609.681696c-7.498404 0-13.591459 7.498404-13.591459 18.038523 0 8.903754 4.447064 18.038523 13.591459 18.038524h28.578643a214.075112 214.075112 0 0 0 7.498404 98.855728 150.555253 150.555253 0 0 1 0 91.36695s-22.485587 53.903805 4.447064 88.556252a123.304954 123.304954 0 0 1 88.556251-11.945469s-10.588247-43.575451 4.447064-79.411856c0 0 22.485587-44.9808 0-112.447188a119.762704 119.762704 0 0 1 4.447064-71.923077z m0 0"  /></svg>