<?xml version="1.0" standalone="no"?><!DOCTYPE svg PUBLIC "-//W3C//DTD SVG 1.1//EN" "http://www.w3.org/Graphics/SVG/1.1/DTD/svg11.dtd"><svg class="icon" width="200px" height="177.78px" viewBox="0 0 1152 1024" version="1.1" xmlns="http://www.w3.org/2000/svg"><path fill="#333333" d="M575.712144 497.543228c328.21989 0 575.712144-106.890555 575.712144-248.771614S903.932034 0 575.712144 0 0 106.954523 0 248.771614s247.492254 248.771614 575.712144 248.771614m0-434.982508c302.632684 0 513.471264 98.062969 513.471264 186.01899S878.088956 434.534733 575.712144 434.534733 62.176912 336.471764 62.176912 248.57971 273.271364 62.56072 575.712144 62.56072m0 698.33883c327.324338 0 574.112944-106.314843 574.112943-247.172414a145.591204 145.591204 0 0 0-49.191404-102.924537l-0.575712-0.63968-0.575712-0.703649a27.954023 27.954023 0 0 0-19.190405-7.676162 28.529735 28.529735 0 0 0-28.401799 28.657672 28.145927 28.145927 0 0 0 9.403298 20.917541 94.416792 94.416792 0 0 1 29.617192 62.048975c0 88.787606-211.542229 187.618191-515.070465 187.618191S60.769615 602.194903 60.769615 513.407296a76.761619 76.761619 0 0 1 30.32084-62.560719l0.895552-0.767616 0.511744-0.511745a28.401799 28.401799 0 0 0-40.811594-39.468265 145.847076 145.847076 0 0 0-49.703149 103.628185c0 140.729635 246.852574 247.172414 574.176912 247.172414m524.537731-88.403798l-0.575712-0.63968a27.890055 27.890055 0 0 0-19.190405-7.676162 28.465767 28.465767 0 0 0-19.190405 49.575212 94.544728 94.544728 0 0 1 29.617192 62.048976c0 88.787606-211.542229 187.618191-515.070465 187.618191S61.217391 864.591704 61.217391 775.804098a76.761619 76.761619 0 0 1 30.32084-62.496752l0.895552-0.831584 0.511744-0.511744a28.465767 28.465767 0 0 0-20.725637-47.848076 28.145927 28.145927 0 0 0-20.085957 8.37981 145.655172 145.655172 0 0 0-49.703148 103.564218c0 140.729635 246.852574 247.236382 574.112943 247.236382s574.112944-106.314843 574.112944-247.236382a145.463268 145.463268 0 0 0-49.191405-102.86057l-0.63968-0.703648"  /></svg>