<?xml version="1.0" standalone="no"?><!DOCTYPE svg PUBLIC "-//W3C//DTD SVG 1.1//EN" "http://www.w3.org/Graphics/SVG/1.1/DTD/svg11.dtd"><svg class="icon" width="200px" height="192.66px" viewBox="0 0 1063 1024" version="1.1" xmlns="http://www.w3.org/2000/svg"><path d="M868.934008 724.032519l-321.803149 185.794235a30.105926 30.105926 0 0 1-30.029501-0.005459L195.139901 723.797786A30.111385 30.111385 0 0 1 180.144256 697.813341l-0.120096-371.834121a30.105926 30.105926 0 0 1 15.012021-26.011739l321.803149-185.788776a30.105926 30.105926 0 0 1 30.029501 0l321.955999 186.023509a30.111385 30.111385 0 0 1 15.006562 25.984445l0.120096 371.834121a30.105926 30.105926 0 0 1-15.012021 26.011739z" fill="#FFFFFF" /><path d="M196.395452 302.331192a27.371009 27.371009 0 0 0-13.647293 23.648028l0.120097 371.834121c0 9.716872 5.229642 18.762297 13.641833 23.626192l321.955998 186.018051a27.371009 27.371009 0 0 0 27.300043 0l321.803149-185.788776a27.371009 27.371009 0 0 0 13.647292-23.648028l-0.120096-371.828662c0-9.716872-5.229642-18.767756-13.641834-23.626193L545.498643 116.547875a27.371009 27.371009 0 0 0-27.300043-0.005459l-321.803148 185.788776m-2.729459-4.727422l321.803149-185.788776a32.753501 32.753501 0 0 1 32.75896 0l321.961457 186.023509a32.753501 32.753501 0 0 1 16.365832 28.348156l0.120097 371.834121a32.753501 32.753501 0 0 1-16.376751 28.37545l-321.803148 185.794235a32.753501 32.753501 0 0 1-32.764419-0.005459l-321.955998-186.023509a32.753501 32.753501 0 0 1-16.365833-28.348156l-0.120096-371.834121a32.753501 32.753501 0 0 1 16.37675-28.37545z" fill="#1A9BFF" /></svg>