<?xml version="1.0" standalone="no"?><!DOCTYPE svg PUBLIC "-//W3C//DTD SVG 1.1//EN" "http://www.w3.org/Graphics/SVG/1.1/DTD/svg11.dtd"><svg t="1604325856176" class="icon" viewBox="0 0 1024 1024" version="1.1" xmlns="http://www.w3.org/2000/svg" p-id="1217" xmlns:xlink="http://www.w3.org/1999/xlink" width="200" height="200"><defs><style type="text/css"></style></defs><path d="M511.999858 1023.998862c-69.119866 0-136.163291-13.539529-199.309835-40.24881a509.979453 509.979453 0 0 1-162.701906-109.710009 509.979453 509.979453 0 0 1-109.738453-162.730351A508.784788 508.784788 0 0 1 0.000853 511.999858c0-69.119866 13.539529-136.163291 40.248811-199.309835a509.979453 509.979453 0 0 1 109.710009-162.701906 509.979453 509.979453 0 0 1 162.73035-109.738453A508.784788 508.784788 0 0 1 511.999858 0.000853c69.119866 0 136.163291 13.539529 199.309834 40.248811a509.979453 509.979453 0 0 1 162.701906 109.710009 509.979453 509.979453 0 0 1 109.738454 162.73035A508.784788 508.784788 0 0 1 1023.998862 511.999858c0 69.119866-13.539529 136.163291-40.24881 199.309834a509.979453 509.979453 0 0 1-109.710009 162.701906 509.979453 509.979453 0 0 1-162.730351 109.738454A508.784788 508.784788 0 0 1 511.999858 1023.998862z m0-967.10923A452.15201 452.15201 0 0 0 190.180039 190.180039 452.15201 452.15201 0 0 0 56.889632 511.999858c0 121.542875 47.331464 235.860875 133.290407 321.819818A452.15201 452.15201 0 0 0 511.999858 967.110084c121.542875 0 235.860875-47.331464 321.819818-133.290408A452.15201 452.15201 0 0 0 967.110084 511.999858c0-121.542875-47.331464-235.860875-133.290408-321.819819A452.15201 452.15201 0 0 0 511.999858 56.889632z m28.444389 711.109728h-56.888778v-227.555113H256.000356v-56.888778h227.555113V256.000356h56.888778v227.555113h227.555113v56.888778h-227.555113v227.555113z" fill="#1A9AFF" p-id="1218"></path></svg>