<?xml version="1.0" standalone="no"?><!DOCTYPE svg PUBLIC "-//W3C//DTD SVG 1.1//EN" "http://www.w3.org/Graphics/SVG/1.1/DTD/svg11.dtd"><svg t="1598280647379" class="icon" viewBox="0 0 1024 1024" version="1.1" xmlns="http://www.w3.org/2000/svg" p-id="1449" xmlns:xlink="http://www.w3.org/1999/xlink" width="200" height="200"><defs><style type="text/css"></style></defs><path d="M102.388505 585.150304v365.713122A75.02285 75.02285 0 0 0 178.993722 1023.978126h666.037222a74.743608 74.743608 0 0 0 76.465597-72.928539v-353.705743h-51.194252v353.705743a24.759402 24.759402 0 0 1-25.410965 24.154379H178.993722a24.992103 24.992103 0 0 1-25.410965-24.38708v-365.666582z m460.74827 414.208041V304.698882H511.942523v694.566382zM25.597126 329.179042h870.302289a74.976309 74.976309 0 0 1 76.791378 73.06816v170.523401l25.597126-24.387081H127.985631a74.976309 74.976309 0 0 1-76.791379-73.16124V304.698882l-25.597126 24.38708z m0-48.72762H0v194.910481a125.007056 125.007056 0 0 0 127.84601 121.88886H1023.885046v-195.003561a124.960516 124.960516 0 0 0-127.84601-121.88886zM460.748271 256.064342h153.582756l-25.597126-24.38708v73.1147l25.597126-24.38708H460.748271l25.597126 24.38708V231.584181l-25.597126 24.38708z m0-48.72762h-25.597127v121.84232h204.77701V207.290182H460.748271z m111.091527 37.604505l6.00369-8.656483c4.654023-6.981034 10.378471-14.753253 16.428701-23.270114 17.266425-23.968218 35.324034-47.889896 53.242022-70.182666 9.540747-11.914299 18.616092-22.990873 27.924138-33.183184a232.933848 232.933848 0 0 1 66.878309-60.595378 240.938767 240.938767 0 0 1 145.903619 87.728332c5.957149 7.586057 2.652793 28.761862-12.24008 58.594149a23.875138 23.875138 0 0 0 12.147 32.57816 26.155609 26.155609 0 0 0 34.113988-11.588517c22.432391-44.957862 28.203379-81.771183 6.934494-108.764516A286.12933 286.12933 0 0 0 742.316658 0.558483c-29.320344 0-61.805425 27.272574-106.484045 78.420286-9.308046 10.704253-19.081494 22.33931-29.041103 34.719011-18.616092 23.037414-37.232183 47.610655-54.77785 72.230436a1841.596875 1841.596875 0 0 0-16.847563 23.782057l-6.329471 9.308046a23.688977 23.688977 0 0 0 7.586057 33.695126 26.38831 26.38831 0 0 0 35.417115-7.213735z m-16.009839-26.48139l-6.329471-9.308046a1757.917543 1757.917543 0 0 0-71.625413-96.012493 1055.532402 1055.532402 0 0 0-29.041103-34.719012C404.155352 27.226034 371.670272 0 342.349927 0a286.12933 286.12933 0 0 0-186.859021 107.042527c-21.082724 26.760632-15.544437 63.201631 6.376012 107.647551a427.239305 427.239305 0 0 0 26.900252 46.167907 674.693705 674.693705 0 0 0 44.166678 59.059552l39.605735-30.856173a596.50612 596.50612 0 0 1-40.443459-54.126286 380.559455 380.559455 0 0 1-23.875138-40.908862c-14.474011-29.366885-17.638747-50.216907-11.774678-57.663344a240.938767 240.938767 0 0 1 145.903619-87.30947 232.933848 232.933848 0 0 1 67.204091 60.502298c8.889184 10.19231 18.150689 21.268885 27.924138 33.183183a1688.991463 1688.991463 0 0 1 69.670723 93.452781l6.00369 8.656483 43.003172-26.481391z" fill="#FFFFFF" p-id="1450"></path></svg>