<?xml version="1.0" standalone="no"?><!DOCTYPE svg PUBLIC "-//W3C//DTD SVG 1.1//EN" "http://www.w3.org/Graphics/SVG/1.1/DTD/svg11.dtd"><svg class="icon" width="200px" height="200.00px" viewBox="0 0 1024 1024" version="1.1" xmlns="http://www.w3.org/2000/svg"><path fill="#333333" d="M179.2 614.4h153.6V460.8h-153.6z m0 230.4h153.6v-153.6h-153.6z m256-230.4h153.6V460.8h-153.6z m0 230.4h153.6v-153.6h-153.6z m256-230.4h153.6V460.8h-153.6v153.6zM870.4 0h-25.6v128h-153.6V0h-358.4v128h-153.6V0H153.6A155.761778 155.761778 0 0 0 0 153.6v716.8A155.761778 155.761778 0 0 0 153.6 1024h716.8a155.761778 155.761778 0 0 0 153.6-153.6V153.6A155.761778 155.761778 0 0 0 870.4 0z m-6.371556 972.8H153.6a122.197333 122.197333 0 0 1-102.4-102.4V332.8h921.6v531.228444a122.538667 122.538667 0 0 1-108.771556 108.771556z m-172.828444-128h153.6v-153.6h-153.6v153.6z"  /></svg>