<?xml version="1.0" standalone="no"?><!DOCTYPE svg PUBLIC "-//W3C//DTD SVG 1.1//EN" "http://www.w3.org/Graphics/SVG/1.1/DTD/svg11.dtd"><svg t="1598280628905" class="icon" viewBox="0 0 1024 1024" version="1.1" xmlns="http://www.w3.org/2000/svg" p-id="1317" xmlns:xlink="http://www.w3.org/1999/xlink" width="200" height="200"><defs><style type="text/css"></style></defs><path d="M825.572636 663.056799l-6.319065 13.038634 7.921081 12.059623 78.098301 118.682717 3.204033-31.817826-138.930425 138.752423 29.503803-3.560037-127.538308-78.0538-10.546608-6.452566-11.347617 4.850549a327.478858 327.478858 0 0 1-24.519751 9.434097l-13.350137 4.450046-2.89253 13.973143-27.901786 134.702881 23.852245-19.802703H408.425358l23.585242 19.046196-34.087349-140.977446-3.026032-12.593629-11.837121-4.494546q-11.036113-4.450046-21.805223-9.567598l-12.059624-5.918561-11.303116 7.431576-119.750728 78.676807 30.171309 3.159532-138.930424-138.752422 3.649037 31.150319 77.920299-127.315805 6.897571-11.258616-5.340055-12.193125a376.117857 376.117857 0 0 1-10.012602-25.765764l-4.450046-13.350137-13.572639-2.803529-134.836383-27.857285 19.5357 24.475251V408.113685l-18.779192 24.297249 141.199948-34.042849 12.237625-2.93703 4.761549-11.926123c3.426535-8.588588 7.209074-17.088175 11.303116-25.36526l6.408066-12.994133-7.921082-12.059624L124.957452 219.832254l-3.159533 31.550824L259.927336 111.251141l-29.770806 3.604537 122.732259 76.14028 10.591108 6.541568 11.436618-4.895051q9.923602-4.450046 20.114206-7.87658l12.460128-4.450046 3.159532-13.350137L443.580719 31.150319l-23.674243 18.957195h196.469515l-23.807745-19.980705 28.836296 139.197427 2.759028 13.350137 12.549129 4.806049c10.190604 3.91604 20.203207 8.277085 29.948807 13.083135l12.148625 6.007561 11.436617-7.387076 113.387163-73.247751-29.859807-3.115032 140.309939 137.951415-3.693538-31.417322-76.229281 122.687758-6.986572 11.258615 5.251054 12.193125c3.604537 8.410586 6.85307 16.954674 9.7901 25.632263l4.450046 12.994133 13.083134 3.159533 134.257877 32.351831-19.090696-24.297249v196.247013l19.5357-24.475251-141.733953 29.2813-12.727131 2.625527-4.984051 12.282126q-4.227543 10.991613-9.434096 21.760723z m32.17383-12.148625l4.806049 24.475251 141.733953-29.2813 19.580201-4.094042V405.577159l-18.779193-4.450046-134.257876-32.351832-5.562557 24.29725 23.051236-8.143584a392.138021 392.138021 0 0 0-11.258615-29.414802l-22.250229 10.012603 20.559211 13.350137 76.229282-122.598757 10.72461-17.266177-14.418148-14.151145-140.309939-137.951415-13.750641-13.350137-16.109165 10.413107-113.476163 73.069749 12.994133 20.959715 10.591108-22.47273a413.631741 413.631741 0 0 0-34.087349-14.907653l-8.499587 23.40724 23.852244-5.162053-28.880796-139.063926L636.134193 0H400.860281l-4.450046 18.957194-32.930338 136.260398 23.674243 6.007561-8.010082-23.585242q-11.570119 4.138542-22.873235 8.900092l9.389597 23.051236 12.593629-21.360219-122.86576-76.05128-16.242667-9.879101-13.350136 13.70614-137.951415 140.042936-14.240146 14.462649 11.080614 17.088175L157.754288 360.453696l20.292208-13.795141-21.938725-11.080614c-4.717048 9.523098-8.900091 19.224197-12.949633 29.058798l22.561732 9.434097-5.384556-24.297249-141.199948 34.042849L0.356174 388.355482v236.430925l19.5357 4.049541 134.836383 27.857286 4.806049-24.475251-23.006736 8.277085c3.426535 10.012603 7.253574 19.847204 11.436617 29.548303l22.250229-10.146104-20.648212-13.350137L71.556904 773.951936l-10.457607 17.088175 14.062144 14.062144 138.930425 138.752423 13.839641 13.839642 16.287167-10.680109 119.750728-78.587806-13.350137-21.004216-10.324105 22.606232q12.237625 5.87406 24.831254 10.858112l8.900091-23.273739-23.674242 6.007561 34.087349 140.977446 4.450046 18.957194h235.273912l4.094042-19.802703 27.901786-134.702881-23.852244-5.162053 7.698579 23.674243c9.434097-3.204033 18.734692-6.80857 27.901786-10.72461l-9.389596-23.006736-12.460128 21.44922 127.493807 77.831298 16.064665 9.834601 13.350137-13.350137 138.930424-138.752423 14.55165-14.551649-11.347617-17.266177-78.098301-118.682717-20.203207 13.973143 21.805224 11.125114q5.963061-12.282126 11.080613-24.875755zM731.454171 511.755247a207.194125 207.194125 0 1 0-207.149625 212.178176 202.299074 202.299074 0 0 0 84.016862-18.200686 25.187258 25.187258 0 0 0 12.371127-32.930338 24.163748 24.163748 0 0 0-32.17383-12.68263 154.550085 154.550085 0 0 1-64.214159 13.884142 162.293164 162.293164 0 1 1 158.421625-162.248664 166.78771 166.78771 0 0 1-3.649038 34.843858 24.964756 24.964756 0 0 0 18.601191 29.726305 24.38625 24.38625 0 0 0 29.014298-19.046196 218.052236 218.052236 0 0 0 4.761549-45.523967z" fill="#FFFFFF" p-id="1318"></path></svg>