<?xml version="1.0" standalone="no"?><!DOCTYPE svg PUBLIC "-//W3C//DTD SVG 1.1//EN" "http://www.w3.org/Graphics/SVG/1.1/DTD/svg11.dtd"><svg class="icon" width="200px" height="200.00px" viewBox="0 0 1024 1024" version="1.1" xmlns="http://www.w3.org/2000/svg"><path fill="#333333" d="M1001.890012 991.709798a29.316105 29.316105 0 0 0-2.852705-7.162113 47.282082 47.282082 0 0 0-3.945232-6.069586 202.724201 202.724201 0 0 0-9.347164-11.046649 1447.1109 1447.1109 0 0 0-31.319068-33.443423c-21.547033-22.457471-43.154763-44.490072-95.535297-97.781045s-73.684785-75.020094-95.04973-97.113389q-20.090333-20.940075-30.347935-32.108115a164.425108 164.425108 0 0 1-6.980025-8.193942 27.070357 27.070357 0 0 1 2.185052 5.58402c2.124355 7.465592 2.124355 7.465592-6.980025 24.763914a424.871081 424.871081 0 0 0 129.707071-306.75692 415.099046 415.099046 0 1 0-830.016004 0 418.801494 418.801494 0 0 0 414.977654 422.38255c5.037757 0 10.196906 0 16.02371-0.667655 4.127319-0.303479 7.708375-0.667655 14.324225-1.335309a222.935926 222.935926 0 0 1 23.732084-1.76018 208.975876 208.975876 0 0 0 46.978603-9.589947l8.07255-2.306443c8.497422-2.427835 17.176931-5.037757 25.613657-7.64768l11.107344-3.52036a25.674352 25.674352 0 0 0 16.44858-32.108115 25.067394 25.067394 0 0 0-31.561852-16.691363l-10.621777 3.338272a1263.081027 1263.081027 0 0 1-24.642522 7.3442l-7.64768 2.185052a243.390433 243.390433 0 0 1-33.746903 7.769071 254.922648 254.922648 0 0 0-28.830537 2.002964c-6.069587 0.606959-9.468556 0.971134-13.049612 1.213917a154.470986 154.470986 0 0 1-12.139174 0.546263A367.999052 367.999052 0 0 1 71.725825 422.321854a364.782171 364.782171 0 1 1 729.382254 0 373.1582 373.1582 0 0 1-113.804754 269.611049c-9.225772 17.541106-9.225772 17.541106-7.040721 25.613656a29.3768 29.3768 0 0 0 2.852706 6.919329 47.88904 47.88904 0 0 0 3.945232 6.069587c2.185051 2.852706 5.280541 6.494458 9.347164 11.046648 7.162113 8.011855 17.541106 19.119199 31.319068 33.443424 21.547033 22.457471 43.397546 44.793551 95.474601 97.720348s73.806176 75.141485 95.171122 97.11339q20.090333 20.940075 30.347935 32.108115c3.277577 3.702448 5.644716 6.494458 6.919329 8.133246a26.342007 26.342007 0 0 1-2.306443-6.069587c-2.06366-8.072551-2.06366-8.072551 8.07255-25.370873a25.917136 25.917136 0 0 0-2.974098 36.053346 24.82461 24.82461 0 0 0 35.446388 3.034794c10.13621-17.419714 10.13621-17.419714 8.011854-26.038528z"  /></svg>