<?xml version="1.0" standalone="no"?><!DOCTYPE svg PUBLIC "-//W3C//DTD SVG 1.1//EN" "http://www.w3.org/Graphics/SVG/1.1/DTD/svg11.dtd"><svg class="icon" width="200px" height="170.67px" viewBox="0 0 1200 1024" version="1.1" xmlns="http://www.w3.org/2000/svg"><path fill="#333333" d="M1200.50957 493.722032v530.277968H141.215543A141.294412 141.294412 0 0 1 0 882.666153V0h1059.254592a141.373281 141.373281 0 0 1 141.215543 141.452151v264.212269l-389.929988 293.433358-286.059075-178.993954-302.306158 302.385027A35.4912 35.4912 0 1 0 272.099203 872.41314l262.634883-262.477144 278.881965 174.261794zM264.803789 423.725498a123.588247 123.588247 0 1 0-123.588246-123.588247 123.588247 123.588247 0 0 0 123.588246 123.588247z m0-70.588054a52.960758 52.960758 0 1 0-52.960757-52.960758 52.960758 52.960758 0 0 0 52.960757 52.921323z"  /></svg>