<?xml version="1.0" standalone="no"?><!DOCTYPE svg PUBLIC "-//W3C//DTD SVG 1.1//EN" "http://www.w3.org/Graphics/SVG/1.1/DTD/svg11.dtd"><svg class="icon" width="200px" height="200.00px" viewBox="0 0 1024 1024" version="1.1" xmlns="http://www.w3.org/2000/svg"><path d="M512 512m-512 0a512 512 0 1 0 1024 0 512 512 0 1 0-1024 0Z" fill="#FFFFFF" /><path d="M512.725333 720.128a189.397333 189.397333 0 1 0-189.397333-189.397333 189.44 189.44 0 0 0 189.397333 189.397333z m152.576 4.010667a244.992 244.992 0 0 1-304.384 0.597333 348.885333 348.885333 0 0 0-167.338666 181.034667 500.522667 500.522667 0 0 0 315.392 114.304h6.698666a500.608 500.608 0 0 0 317.013334-115.2 343.552 343.552 0 0 0-167.424-180.906667z" fill="#4B4E6B" /></svg>