<?xml version="1.0" standalone="no"?><!DOCTYPE svg PUBLIC "-//W3C//DTD SVG 1.1//EN" "http://www.w3.org/Graphics/SVG/1.1/DTD/svg11.dtd"><svg class="icon" width="200px" height="200.00px" viewBox="0 0 1024 1024" version="1.1" xmlns="http://www.w3.org/2000/svg"><path fill="#333333" d="M907.648 0H116.352A116.736 116.736 0 0 0 0.064 116.352v791.232a116.736 116.736 0 0 0 116.352 116.352h791.232a116.736 116.736 0 0 0 116.416-116.352V116.352A116.736 116.736 0 0 0 907.648 0z m46.528 907.648a47.232 47.232 0 0 1-46.528 46.528H116.352a47.232 47.232 0 0 1-46.528-46.528V116.352a47.232 47.232 0 0 1 46.528-46.528h791.296a47.232 47.232 0 0 1 46.528 46.528zM804.16 244.992L369.28 698.368 217.664 540.096a34.368 34.368 0 0 0-49.984 0 37.824 37.824 0 0 0 0 52.096l176.768 184.384a34.304 34.304 0 0 0 25.024 10.752 34.816 34.816 0 0 0 25.024-10.752l459.904-479.488a37.824 37.824 0 0 0 0-52.096 34.368 34.368 0 0 0-49.984 0z m0 0"  /></svg>